<svg width="190" height="99" viewBox="0 0 190 99" fill="none" xmlns="http://www.w3.org/2000/svg">
<path d="M102.71 60.3C101.55 60.3 100.5 60.04 99.56 59.52C98.64 58.98 97.92 58.24 97.4 57.3C96.88 56.36 96.62 55.27 96.62 54.03V45.75H99.32V53.91C99.32 54.69 99.45 55.37 99.71 55.95C99.99 56.51 100.39 56.94 100.91 57.24C101.43 57.54 102.04 57.69 102.74 57.69C103.8 57.69 104.63 57.36 105.23 56.7C105.83 56.02 106.13 55.09 106.13 53.91V45.75H108.83V54.03C108.83 55.27 108.57 56.36 108.05 57.3C107.53 58.24 106.81 58.98 105.89 59.52C104.99 60.04 103.93 60.3 102.71 60.3ZM119.679 60.3C118.359 60.3 117.179 59.98 116.139 59.34C115.099 58.68 114.269 57.79 113.649 56.67C113.049 55.55 112.749 54.29 112.749 52.89C112.749 51.49 113.049 50.23 113.649 49.11C114.269 47.99 115.099 47.1 116.139 46.44C117.179 45.78 118.359 45.45 119.679 45.45C120.739 45.45 121.699 45.68 122.559 46.14C123.419 46.58 124.109 47.2 124.629 48C125.169 48.78 125.469 49.69 125.529 50.73V55.02C125.469 56.04 125.179 56.95 124.659 57.75C124.139 58.55 123.449 59.18 122.589 59.64C121.729 60.08 120.759 60.3 119.679 60.3ZM120.129 57.75C121.029 57.75 121.809 57.54 122.469 57.12C123.149 56.7 123.679 56.13 124.059 55.41C124.439 54.67 124.629 53.83 124.629 52.89C124.629 51.91 124.429 51.06 124.029 50.34C123.649 49.62 123.119 49.05 122.439 48.63C121.779 48.21 120.999 48 120.099 48C119.199 48 118.409 48.21 117.729 48.63C117.049 49.05 116.509 49.63 116.109 50.37C115.729 51.09 115.539 51.92 115.539 52.86C115.539 53.82 115.729 54.67 116.109 55.41C116.509 56.13 117.049 56.7 117.729 57.12C118.429 57.54 119.229 57.75 120.129 57.75ZM127.179 60H124.449V56.16L124.959 52.68L124.449 49.23V38.58H127.179V60ZM138.22 66.27C136.76 66.27 135.46 66 134.32 65.46C133.2 64.92 132.3 64.16 131.62 63.18L133.36 61.41C133.94 62.15 134.63 62.71 135.43 63.09C136.23 63.49 137.18 63.69 138.28 63.69C139.74 63.69 140.89 63.3 141.73 62.52C142.59 61.76 143.02 60.73 143.02 59.43V55.89L143.5 52.68L143.02 49.5V45.75H145.72V59.43C145.72 60.79 145.4 61.98 144.76 63C144.14 64.02 143.26 64.82 142.12 65.4C141 65.98 139.7 66.27 138.22 66.27ZM138.22 59.76C136.92 59.76 135.75 59.45 134.71 58.83C133.69 58.21 132.88 57.36 132.28 56.28C131.68 55.18 131.38 53.95 131.38 52.59C131.38 51.23 131.68 50.02 132.28 48.96C132.88 47.88 133.69 47.03 134.71 46.41C135.75 45.77 136.92 45.45 138.22 45.45C139.34 45.45 140.33 45.67 141.19 46.11C142.05 46.55 142.73 47.17 143.23 47.97C143.75 48.75 144.03 49.67 144.07 50.73V54.51C144.01 55.55 143.72 56.47 143.2 57.27C142.7 58.05 142.02 58.66 141.16 59.1C140.3 59.54 139.32 59.76 138.22 59.76ZM138.76 57.21C139.64 57.21 140.41 57.02 141.07 56.64C141.75 56.26 142.27 55.73 142.63 55.05C142.99 54.35 143.17 53.54 143.17 52.62C143.17 51.7 142.98 50.9 142.6 50.22C142.24 49.52 141.73 48.98 141.07 48.6C140.41 48.2 139.63 48 138.73 48C137.83 48 137.04 48.2 136.36 48.6C135.68 48.98 135.14 49.52 134.74 50.22C134.36 50.9 134.17 51.69 134.17 52.59C134.17 53.49 134.36 54.29 134.74 54.99C135.14 55.69 135.68 56.24 136.36 56.64C137.06 57.02 137.86 57.21 138.76 57.21ZM157.483 60.3C156.063 60.3 154.783 59.98 153.643 59.34C152.503 58.68 151.603 57.79 150.943 56.67C150.283 55.55 149.953 54.28 149.953 52.86C149.953 51.46 150.273 50.2 150.913 49.08C151.573 47.96 152.453 47.08 153.553 46.44C154.673 45.78 155.923 45.45 157.303 45.45C158.623 45.45 159.783 45.75 160.783 46.35C161.803 46.95 162.593 47.78 163.153 48.84C163.733 49.9 164.023 51.1 164.023 52.44C164.023 52.64 164.013 52.86 163.993 53.1C163.973 53.32 163.933 53.58 163.873 53.88H151.843V51.63H162.433L161.443 52.5C161.443 51.54 161.273 50.73 160.933 50.07C160.593 49.39 160.113 48.87 159.493 48.51C158.873 48.13 158.123 47.94 157.243 47.94C156.323 47.94 155.513 48.14 154.813 48.54C154.113 48.94 153.573 49.5 153.193 50.22C152.813 50.94 152.623 51.79 152.623 52.77C152.623 53.77 152.823 54.65 153.223 55.41C153.623 56.15 154.193 56.73 154.933 57.15C155.673 57.55 156.523 57.75 157.483 57.75C158.283 57.75 159.013 57.61 159.673 57.33C160.353 57.05 160.933 56.63 161.413 56.07L163.153 57.84C162.473 58.64 161.633 59.25 160.633 59.67C159.653 60.09 158.603 60.3 157.483 60.3ZM169.917 60V39.78H172.617V60H169.917ZM166.407 48.21V45.75H176.127V48.21H166.407Z" fill="white"/>
<circle cx="49.0172" cy="49.0172" r="35.8831" transform="rotate(-30 49.0172 49.0172)" fill="url(#paint0_linear_120_5)"/>
<path d="M40.25 68V63.9H50.75C52.75 63.9 54.3167 63.3167 55.45 62.15C56.5833 60.95 57.15 59.5167 57.15 57.85C57.15 56.7167 56.9 55.7 56.4 54.8C55.9 53.8667 55.1667 53.1333 54.2 52.6C53.2667 52.0667 52.1667 51.8 50.9 51.8H40.25V47.7H50.2C51.8667 47.7 53.1833 47.2667 54.15 46.4C55.15 45.5 55.65 44.2167 55.65 42.55C55.65 40.8833 55.1333 39.6167 54.1 38.75C53.0667 37.85 51.7 37.4 50 37.4H40.25V33.3H50.1C52.3667 33.3 54.25 33.7167 55.75 34.55C57.2833 35.35 58.4333 36.4167 59.2 37.75C60 39.0833 60.4 40.55 60.4 42.15C60.4 44.0167 59.8833 45.65 58.85 47.05C57.85 48.45 56.3667 49.55 54.4 50.35L54.8 48.85C57.0333 49.65 58.7667 50.8667 60 52.5C61.2667 54.1 61.9 56 61.9 58.2C61.9 60.0333 61.45 61.6833 60.55 63.15C59.65 64.6167 58.35 65.8 56.65 66.7C54.9833 67.5667 52.9333 68 50.5 68H40.25ZM37.1 68V33.3H41.8V68H37.1Z" fill="white"/>
<defs>
<linearGradient id="paint0_linear_120_5" x1="49.0172" y1="13.1341" x2="49.0172" y2="84.9002" gradientUnits="userSpaceOnUse">
<stop stop-color="#0931AA"/>
<stop offset="1" stop-color="#6428C1"/>
</linearGradient>
</defs>
</svg>
